<svg width="28" height="28" viewBox="0 0 28 28" fill="none" xmlns="http://www.w3.org/2000/svg">
<path d="M18.0934 0.666687H9.90675C2.44008 0.666687 0.666748 2.44002 0.666748 9.90669V18.0934C0.666748 25.56 2.44008 27.3334 9.90675 27.3334H18.0934C25.5601 27.3334 27.3334 25.56 27.3334 18.0934V9.90669C27.3334 2.44002 25.5601 0.666687 18.0934 0.666687ZM22.2001 19.6934H20.2534C19.5201 19.6934 19.2934 19.0934 18.0001 17.7734C16.8267 16.6667 16.3201 16.5067 16.0401 16.5067C15.6534 16.5067 15.5334 16.6134 15.5334 17.1734V18.92C15.5334 19.3867 15.3867 19.68 14.1467 19.68C12.0934 19.68 9.81341 18.4267 8.21341 16.12C5.80008 12.7334 5.14675 10.1734 5.14675 9.66669C5.14675 9.38669 5.24008 9.12002 5.80008 9.12002H7.76008C8.25342 9.12002 8.44008 9.33335 8.62675 9.86669C9.58675 12.6667 11.1867 15.0667 11.8401 15.0667C12.0934 15.0667 12.2001 14.9467 12.2001 14.3334V11.4667C12.1334 10.16 11.4267 10.04 11.4267 9.57335C11.4267 9.33335 11.6134 9.12002 11.9201 9.12002H14.9734C15.3867 9.12002 15.5334 9.33335 15.5334 9.84002V13.6934C15.5334 14.1067 15.7067 14.2534 15.8401 14.2534C16.0801 14.2534 16.2934 14.1067 16.7334 13.6534C18.1334 12.0934 19.1334 9.68002 19.1334 9.68002C19.2667 9.40002 19.4801 9.13335 20.0001 9.13335H21.9067C22.4934 9.13335 22.6267 9.44002 22.4934 9.85335C22.2534 10.9867 19.8801 14.3334 19.9067 14.3334C19.6934 14.6667 19.6134 14.8134 19.9067 15.2C20.1067 15.48 20.7867 16.0667 21.2401 16.5867C22.0667 17.5334 22.7067 18.32 22.8801 18.8667C23.0267 19.4134 22.7601 19.6934 22.2001 19.6934Z" fill="white"/>
</svg>
