<svg width="14" height="21" viewBox="0 0 14 21" fill="none" xmlns="http://www.w3.org/2000/svg">
<path d="M7.64 19.97C7.14 20.21 6.54 20 6.31 19.5L4.13 14.76L1.62 16.78C1.45 16.92 1.24 17 1 17C0.734784 17 0.48043 16.8946 0.292893 16.7071C0.105357 16.5196 0 16.2652 0 16V1C0 0.734784 0.105357 0.48043 0.292893 0.292893C0.48043 0.105357 0.734784 0 1 0C1.24 0 1.47 0.09 1.64 0.23L1.65 0.22L13.14 9.86C13.57 10.22 13.62 10.85 13.27 11.27C13.12 11.45 12.91 11.57 12.7 11.61L9.54 12.23L11.74 16.96C12 17.46 11.76 18.05 11.26 18.28L7.64 19.97Z" fill="black"/>
</svg>
