<svg width="28" height="28" viewBox="0 0 28 28" fill="none" xmlns="http://www.w3.org/2000/svg">
<path d="M14.0001 0.720032C6.66675 0.720032 0.666748 6.7067 0.666748 14.08C0.666748 20.7467 5.54675 26.28 11.9201 27.28V17.9467H8.53341V14.08H11.9201V11.1334C11.9201 7.7867 13.9067 5.9467 16.9601 5.9467C18.4134 5.9467 19.9334 6.20003 19.9334 6.20003V9.49337H18.2534C16.6001 9.49337 16.0801 10.52 16.0801 11.5734V14.08H19.7867L19.1867 17.9467H16.0801V27.28C19.222 26.7838 22.083 25.1807 24.1467 22.7601C26.2103 20.3395 27.3405 17.2609 27.3334 14.08C27.3334 6.7067 21.3334 0.720032 14.0001 0.720032Z" fill="white"/>
</svg>
